<?xml version="1.0" ?><svg fill="none" height="96" viewBox="0 0 96 96" width="96" xmlns="http://www.w3.org/2000/svg"><path d="M20 53.3516C20 52.247 20.8954 51.3516 22 51.3516H74C75.1046 51.3516 76 52.247 76 53.3516V83.3516C76 85.5607 74.2091 87.3516 72 87.3516H24C21.7909 87.3516 20 85.5607 20 83.3516V53.3516Z" fill="#F6B22F"/><path clip-rule="evenodd" d="M22 49.3516H74C76.2091 49.3516 78 51.1424 78 53.3516V83.3516C78 86.6653 75.3137 89.3516 72 89.3516H24C20.6863 89.3516 18 86.6653 18 83.3516V53.3516C18 51.1424 19.7909 49.3516 22 49.3516ZM22 51.3516C20.8954 51.3516 20 52.247 20 53.3516V83.3516C20 85.5607 21.7909 87.3516 24 87.3516H72C74.2091 87.3516 76 85.5607 76 83.3516V53.3516C76 52.247 75.1046 51.3516 74 51.3516H22Z" fill="#E68C06" fill-rule="evenodd"/><path clip-rule="evenodd" d="M21.8125 60.625C22.3648 60.625 22.8125 61.0727 22.8125 61.625V79.875C22.8125 80.4273 22.3648 80.875 21.8125 80.875C21.2602 80.875 20.8125 80.4273 20.8125 79.875V61.625C20.8125 61.0727 21.2602 60.625 21.8125 60.625Z" fill="#FFC24A" fill-rule="evenodd"/><path clip-rule="evenodd" d="M20.3535 84.9981C20.9812 86.3859 22.3778 87.3516 24 87.3516H72C74.2091 87.3516 76 85.5607 76 83.3516V53.3516C76 52.247 75.1046 51.3516 74 51.3516V81.3516C74 83.5607 72.2091 85.3516 70 85.3516H22C21.4131 85.3516 20.8557 85.2251 20.3535 84.9981Z" fill="#E7A320" fill-rule="evenodd"/><path d="M20 49.3516H76V59.2266H20V49.3516Z" fill="#E7A320"/><path d="M69.5972 67.0678C69.5972 67.6034 69.163 68.0376 68.6273 68.0376C68.0917 68.0376 67.6575 67.6034 67.6575 67.0678C67.6575 66.5321 68.0917 66.0979 68.6273 66.0979C69.163 66.0979 69.5972 66.5321 69.5972 67.0678Z" fill="#E88E07"/><path d="M71.3875 83.5067C71.3875 84.0424 70.9533 84.4766 70.4176 84.4766C69.882 84.4766 69.4478 84.0424 69.4478 83.5067C69.4478 82.9711 69.882 82.5369 70.4176 82.5369C70.9533 82.5369 71.3875 82.9711 71.3875 83.5067Z" fill="#E88E07"/><path d="M73.5251 69.3469C73.5251 70.07 72.9389 70.6562 72.2158 70.6562C71.4927 70.6562 70.9065 70.07 70.9065 69.3469C70.9065 68.6238 71.4927 68.0376 72.2158 68.0376C72.9389 68.0376 73.5251 68.6238 73.5251 69.3469Z" fill="#E88E07"/><path d="M72.8704 65.0917C72.8704 65.634 72.4308 66.0737 71.8885 66.0737C71.3461 66.0737 70.9065 65.634 70.9065 65.0917C70.9065 64.5494 71.3461 64.1097 71.8885 64.1097C72.4308 64.1097 72.8704 64.5494 72.8704 65.0917Z" fill="#E88E07"/><path d="M73.6688 74.972C73.6688 76.0969 72.7569 77.0087 71.6321 77.0087C70.5073 77.0087 69.5954 76.0969 69.5954 74.972C69.5954 73.8472 70.5073 72.9354 71.6321 72.9354C72.7569 72.9354 73.6688 73.8472 73.6688 74.972Z" fill="#E88E07"/><path d="M69.5972 71.3109C69.5972 72.034 69.011 72.6201 68.2879 72.6201C67.5648 72.6201 66.9786 72.034 66.9786 71.3109C66.9786 70.5877 67.5648 70.0016 68.2879 70.0016C69.011 70.0016 69.5972 70.5877 69.5972 71.3109Z" fill="#E88E07"/><path d="M74 80.2823C74 81.0055 73.4138 81.5916 72.6907 81.5916C71.9676 81.5916 71.3814 81.0055 71.3814 80.2823C71.3814 79.5592 71.9676 78.9731 72.6907 78.9731C73.4138 78.9731 74 79.5592 74 80.2823Z" fill="#E88E07"/><path d="M70.2159 79.2151C70.2159 79.6538 69.8603 80.0093 69.4216 80.0093C68.983 80.0093 68.6274 79.6538 68.6274 79.2151C68.6274 78.7765 68.983 78.4209 69.4216 78.4209C69.8603 78.4209 70.2159 78.7765 70.2159 79.2151Z" fill="#E88E07"/><path d="M67.4617 81.7125C67.4617 82.4356 66.8755 83.0218 66.1524 83.0218C65.4293 83.0218 64.8431 82.4356 64.8431 81.7125C64.8431 80.9894 65.4293 80.4032 66.1524 80.4032C66.8755 80.4032 67.4617 80.9894 67.4617 81.7125Z" fill="#E88E07"/><path d="M67.6575 77.2512C67.6575 77.9743 67.0713 78.5605 66.3482 78.5605C65.6251 78.5605 65.0389 77.9743 65.0389 77.2512C65.0389 76.5281 65.6251 75.9419 66.3482 75.9419C67.0713 75.9419 67.6575 76.5281 67.6575 77.2512Z" fill="#E88E07"/><path d="M62.8568 83.4946C62.8568 84.0369 62.4171 84.4766 61.8748 84.4766C61.3325 84.4766 60.8928 84.0369 60.8928 83.4946C60.8928 82.9523 61.3325 82.5126 61.8748 82.5126C62.4171 82.5126 62.8568 82.9523 62.8568 83.4946Z" fill="#E88E07"/><path d="M12 44.3515C12 39.9333 15.5817 36.3515 20 36.3515H76C80.4183 36.3515 84 39.9333 84 44.3515V52.3515C84 53.4561 83.1046 54.3515 82 54.3515H14C12.8954 54.3515 12 53.4561 12 52.3515V44.3515Z" fill="#FFC658"/><path clip-rule="evenodd" d="M20 34.3515H76C81.5229 34.3515 86 38.8287 86 44.3515V52.3515C86 54.5607 84.2091 56.3515 82 56.3515H14C11.7909 56.3515 10 54.5607 10 52.3515V44.3515C10 38.8287 14.4772 34.3515 20 34.3515ZM20 36.3515C15.5817 36.3515 12 39.9333 12 44.3515V52.3515C12 53.4561 12.8954 54.3515 14 54.3515H82C83.1046 54.3515 84 53.4561 84 52.3515V44.3515C84 39.9333 80.4183 36.3515 76 36.3515H20Z" fill="#CF8C0B" fill-rule="evenodd"/><path clip-rule="evenodd" d="M12.2676 53.3515C12.6134 53.9493 13.2597 54.3515 14 54.3515H82C83.1046 54.3515 84 53.4561 84 52.3515V44.3515C84 40.8206 81.7126 37.824 78.5387 36.7627C80.6297 38.2059 82 40.6187 82 43.3515V51.3515C82 52.4561 81.1046 53.3515 80 53.3515H12.2676Z" fill="#F2B43D" fill-rule="evenodd"/><path d="M44.25 36.3515H52.5397V87.3515H44.25V36.3515Z" fill="#FF4646"/><path clip-rule="evenodd" d="M42.25 34.3515H54.5397V89.3515H42.25V34.3515ZM44.25 36.3515V87.3515H52.5397V36.3515H44.25Z" fill="#CD2222" fill-rule="evenodd"/><path clip-rule="evenodd" d="M46.25 40.3515C46.8023 40.3515 47.25 40.7992 47.25 41.3515V56.8515C47.25 57.4038 46.8023 57.8515 46.25 57.8515C45.6977 57.8515 45.25 57.4038 45.25 56.8515V41.3515C45.25 40.7992 45.6977 40.3515 46.25 40.3515Z" fill="#FF7575" fill-rule="evenodd"/><path clip-rule="evenodd" d="M49.375 51.9766C49.9273 51.9766 50.375 52.4243 50.375 52.9766V84.4766C50.375 85.0289 49.9273 85.4766 49.375 85.4766C48.8227 85.4766 48.375 85.0289 48.375 84.4766V52.9766C48.375 52.4243 48.8227 51.9766 49.375 51.9766Z" fill="#F02E2E" fill-rule="evenodd"/><path d="M27.5847 40.8622C28.4993 43.3945 22.898 41.911 21.2695 44.2211C18.582 48.0336 14.7439 48.3624 13.8294 45.8301C12.9148 43.2978 14.3461 40.0305 18.1445 38.6586C21.943 37.2868 26.6702 38.3299 27.5847 40.8622Z" fill="#FFE68F"/><path d="M28.1831 35.4089C35.7236 33.164 43.4736 34.2264 46.5987 35.4089L50.4737 33.164C37.9737 27.7889 34.9111 28.4765 31.5362 28.4764L28.1831 35.4089Z" fill="#DC2C2C"/><path clip-rule="evenodd" d="M47.6013 37.1394C47.0812 37.4407 46.4531 37.4922 45.891 37.2794C43.1638 36.2476 35.8628 35.2093 28.7539 37.3257C27.9944 37.5518 27.1731 37.3082 26.6597 36.7047C26.1464 36.1011 26.0377 35.2513 26.3827 34.538L29.7358 27.6056C30.0698 26.9151 30.7693 26.4764 31.5363 26.4765C31.8299 26.4765 32.1351 26.4699 32.4573 26.4631C33.8359 26.4336 35.5251 26.3976 37.9409 26.8368C40.8991 27.3747 44.9448 28.6094 51.2639 31.3267C51.9585 31.6254 52.4253 32.2903 52.4703 33.0451C52.5152 33.7999 52.1306 34.5155 51.4763 34.8946L47.6013 37.1394ZM48.1594 32.1934C38.7055 28.3362 35.3958 28.4042 32.5476 28.4626C32.2071 28.4696 31.8733 28.4765 31.5363 28.4765L28.1832 35.4089C29.0254 35.1581 29.8703 34.9486 30.711 34.776C37.3972 33.4028 43.8227 34.3585 46.5987 35.4089L50.4738 33.164C49.6636 32.8156 48.893 32.4927 48.1594 32.1934Z" fill="#B31B1B" fill-rule="evenodd"/><path d="M70.4263 35.733C61.5388 33.3503 55.1688 33.5982 50.5973 34.8543L47.9131 34.0113C59.3365 27.9757 63.6902 29.553 66.6473 30.0918L70.4263 35.733Z" fill="#BF2222"/><path clip-rule="evenodd" d="M49.9617 36.7576C50.3286 36.8728 50.7231 36.8794 51.0977 36.7765C55.2498 35.6357 61.2479 35.3479 69.8713 37.6598C70.6778 37.876 71.5436 37.5671 72.0411 36.8856C72.5387 36.2042 72.5626 35.2944 72.1012 34.6056L68.3222 28.9643C68.0282 28.5254 67.5679 28.2248 67.0437 28.1293C66.8457 28.0933 66.6305 28.0494 66.397 28.0019C65.0344 27.7245 63.0534 27.3211 60.2883 27.6016C57.0648 27.9287 52.8632 29.1546 46.9983 32.2533C46.2802 32.6328 45.8528 33.3994 45.9137 34.1988C45.9747 34.9981 46.5121 35.6743 47.2775 35.9147L49.9617 36.7576ZM50.6598 34.8372C54.7111 33.7362 60.1671 33.427 67.5231 35.0268C68.4597 35.2305 69.4271 35.4651 70.4263 35.733L66.6473 30.0918C66.419 30.0502 66.1823 30.0024 65.9347 29.9524C63.2292 29.406 59.2176 28.5959 50.4925 32.7184C49.675 33.1047 48.8162 33.5342 47.9131 34.0113L50.5973 34.8543C50.6181 34.8486 50.6389 34.8429 50.6598 34.8372Z" fill="#9D1818" fill-rule="evenodd"/><path clip-rule="evenodd" d="M65.2699 30.8102C64.8275 31.1483 64.7379 31.7756 65.0698 32.2113L66.4077 33.968C66.7396 34.4037 67.3673 34.4828 67.8097 34.1447C68.2521 33.8066 68.3417 33.1793 68.0098 32.7436L66.6719 30.9869C66.34 30.5512 65.7123 30.4721 65.2699 30.8102Z" fill="#DE3838" fill-rule="evenodd"/><path d="M18.5241 25.8199C30.9781 25.3754 40.3986 31.2053 44.1912 34.0541L46.6491 33.1324C38.3958 22.5504 25.5146 18.7864 21.8991 18.6324L21.149 22.4449L18.5241 25.8199Z" fill="#EA2F2F"/><path clip-rule="evenodd" d="M44.8934 35.9268C44.2538 36.1666 43.5361 36.0634 42.99 35.6532C39.3707 32.9345 30.3984 27.3974 18.5954 27.8187C17.8192 27.8464 17.0971 27.4221 16.7434 26.7306C16.3898 26.039 16.4685 25.2052 16.9454 24.5921L19.2784 21.5923L19.9367 18.2463C20.1274 17.277 20.9973 16.5922 21.9842 16.6342C24.1582 16.7268 28.558 17.8186 33.4082 20.1727C38.3082 22.5508 43.8641 26.3096 48.2261 31.9024C48.6176 32.4043 48.7468 33.0626 48.574 33.6752C48.4013 34.2878 47.9473 34.7816 47.3513 35.0051L44.8934 35.9268ZM21.149 22.4449L18.5241 25.8199C19.3848 25.7892 20.231 25.7885 21.0619 25.8146C32.2534 26.167 40.6608 31.4022 44.1912 34.0541L46.6491 33.1324C46.2107 32.5704 45.7593 32.0276 45.2969 31.5035C37.0536 22.1608 25.3226 18.7783 21.8991 18.6324L21.149 22.4449Z" fill="#B31B1B" fill-rule="evenodd"/><path clip-rule="evenodd" d="M26.9292 25.8723C24.5011 25.2232 22.5654 25.173 21.9796 25.2161C21.4288 25.2566 20.9494 24.8429 20.9089 24.2921C20.8684 23.7413 21.2821 23.262 21.8329 23.2215C22.6637 23.1604 24.8239 23.2393 27.4457 23.9402C27.9793 24.0828 28.2962 24.631 28.1536 25.1645C28.0109 25.6981 27.4628 26.015 26.9292 25.8723Z" fill="#FF4444" fill-rule="evenodd"/><path d="M77.7962 27.2051C66.8025 26.8128 59.9077 30.0434 56.5599 32.5581L52.4364 32.53C59.7219 23.1888 71.904 20.027 75.0955 19.891L75.0707 23.5326L77.7962 27.2051Z" fill="#D92525"/><path clip-rule="evenodd" d="M56.5462 34.5581C56.9841 34.5611 57.4109 34.4203 57.761 34.1573C60.7247 31.9311 67.1653 28.827 77.7248 29.2039C78.4929 29.2313 79.2088 28.8161 79.5664 28.1358C79.9241 27.4555 79.8602 26.6304 79.4022 26.0132L77.0752 22.8777L77.0955 19.9047C77.0992 19.3571 76.8783 18.832 76.4842 18.4518C76.0902 18.0715 75.5575 17.8695 75.0104 17.8928C73.083 17.9749 68.9831 18.8927 64.4752 20.9371C59.9286 22.999 54.7605 26.2981 50.8594 31.3C50.3908 31.9007 50.3043 32.7155 50.6362 33.4013C50.9681 34.0871 51.6609 34.5247 52.4227 34.5299L56.5462 34.5581ZM75.0707 23.5326L77.7962 27.2051C76.934 27.1744 76.0971 27.1659 75.2851 27.1776C65.7429 27.3151 59.6451 30.2406 56.5599 32.5581L52.4364 32.53C52.9798 31.8332 53.5505 31.1709 54.1426 30.5416C60.2956 24.0024 68.7679 21.034 73.0936 20.1682C73.9326 20.0003 74.6157 19.9115 75.0955 19.891L75.0707 23.5326Z" fill="#B31B1B" fill-rule="evenodd"/><path clip-rule="evenodd" d="M73.2363 20.3723C73.7886 20.3723 74.2363 20.8201 74.2363 21.3723V22.862C74.2363 23.4143 73.7886 23.862 73.2363 23.862C72.684 23.862 72.2363 23.4143 72.2363 22.862V21.3723C72.2363 20.8201 72.684 20.3723 73.2363 20.3723Z" fill="#FF5252" fill-rule="evenodd"/><path d="M54.3923 13.539C44.906 18.6812 46.7501 30.0389 46.75 33.3514L48.75 33.6639C49.5794 25.5389 55.2217 15.6639 59.5344 20.0389C62.4397 22.9863 52.6062 33.4174 48.4209 35.2889H51.7383C56.8804 34.6014 64.7026 27.4678 66.2246 20.9139C67.3857 15.9139 63.8471 8.41392 54.3923 13.539Z" fill="#E33030"/><path clip-rule="evenodd" d="M46.421 35.3241C45.4577 35.1636 44.75 34.3299 44.75 33.3514C44.75 33.0748 44.7295 32.6763 44.704 32.1811C44.6072 30.3037 44.4389 27.0374 45.0476 23.7656C45.8446 19.4808 48.0062 14.7257 53.4392 11.7807C56.0154 10.3842 58.3655 9.75 60.4667 9.82741C62.6056 9.90621 64.3666 10.721 65.6802 11.9923C68.2169 14.4472 68.8739 18.347 68.1728 21.3663C67.2932 25.154 64.6742 28.8997 61.7272 31.7411C58.8134 34.5504 55.1928 36.8449 52.0034 37.2713C51.9155 37.283 51.827 37.2889 51.7383 37.2889H48.4208C47.4771 37.2889 46.6618 36.6293 46.4649 35.7063C46.4376 35.5787 46.4233 35.4508 46.421 35.3241ZM52.2436 35.2026C57.3781 34.1422 64.7517 27.2566 66.2246 20.9139C67.3857 15.9139 63.8471 8.4139 54.3923 13.539C46.0025 18.0868 46.4751 27.4964 46.6965 31.9023C46.7254 32.4782 46.75 32.9685 46.75 33.3514L48.75 33.6639C48.7627 33.5393 48.7766 33.4143 48.7915 33.2889C48.814 33.1008 48.8389 32.9119 48.8663 32.7225C48.916 32.3782 48.9737 32.0319 49.039 31.6848C50.4753 24.0475 55.5673 16.0146 59.5344 20.0389C61.8632 22.4014 56.0073 29.5722 51.436 33.2889C51.2013 33.4798 50.9699 33.6616 50.7432 33.8332C50.7298 33.8432 50.7165 33.8533 50.7032 33.8633C49.8877 34.4776 49.1338 34.958 48.5019 35.252C48.4746 35.2646 48.4476 35.277 48.4208 35.2889H51.7383C51.9041 35.2668 52.0726 35.2379 52.2436 35.2026ZM51.2762 30.7934C52.5804 29.622 53.9286 28.2232 55.0868 26.8032C56.3414 25.2651 57.289 23.8042 57.7598 22.6479C58.0915 21.8328 58.0733 21.4871 58.0547 21.3882C57.7551 21.0993 57.5363 21.0117 57.4119 20.9826C57.2862 20.9532 57.1166 20.9502 56.8585 21.0485C56.262 21.2758 55.4125 21.9688 54.4752 23.3098C53.1301 25.2341 51.9582 27.9829 51.2762 30.7934Z" fill="#BC2020" fill-rule="evenodd"/><path clip-rule="evenodd" d="M50.9591 16.9269C55.366 11.2318 60.8584 12.2158 61.3211 12.3083C61.8627 12.4167 62.2139 12.9435 62.1056 13.485C61.9973 14.0266 61.4704 14.3778 60.9289 14.2695C60.7666 14.2371 56.2589 13.346 52.5409 18.1509C52.2029 18.5877 51.5748 18.6678 51.138 18.3298C50.7012 17.9918 50.6211 17.3637 50.9591 16.9269Z" fill="#FF4444" fill-rule="evenodd"/><path clip-rule="evenodd" d="M20.687 39.9574C20.7033 40.5095 20.2689 40.9702 19.7169 40.9864C18.4991 41.0222 17.6361 41.8604 17.0637 42.6618C16.7427 43.1112 16.1181 43.2153 15.6687 42.8943C15.2193 42.5733 15.1152 41.9487 15.4362 41.4993C16.1138 40.5508 17.4758 39.0514 19.6581 38.9873C20.2101 38.971 20.6708 39.4054 20.687 39.9574Z" fill="white" fill-rule="evenodd"/><path d="M28.5 18.0175C31.4999 26.1425 41.1875 31.705 47.875 35.2675C41.6078 31.2884 35.591 23.9774 33.875 20.7675C32.159 17.5575 33.3125 13.33 37.875 14.1425C43.783 15.1946 47.3907 28.9855 49.3125 34.875C49.5417 31.5018 48.7108 19.4921 43.7499 13.3925C36.1249 4.01753 25.5864 10.1265 28.5 18.0175Z" fill="#F23535"/><path clip-rule="evenodd" d="M49.083 36.862C48.4793 37.3189 47.6429 37.41 46.9346 37.0327C43.5778 35.2444 39.3506 32.8944 35.5698 29.9267C31.8057 26.9721 28.3077 23.2709 26.6238 18.7103C24.7765 13.707 27.2416 9.11656 31.4045 7.38385C35.602 5.63671 41.0451 6.89724 45.3015 12.1306C48.0996 15.5709 49.6241 20.4962 50.442 24.7811C51.2669 29.1023 51.4362 33.1221 51.3079 35.0106C51.243 35.9661 50.5098 36.7414 49.5595 36.8597C49.3983 36.8797 49.2386 36.8799 49.083 36.862ZM48.7194 26.5305C47.986 21.9893 46.5048 16.7797 43.7499 13.3925C36.1249 4.01753 25.5864 10.1265 28.5 18.0175C30.1029 22.3587 33.6149 25.9684 37.5584 28.9323C40.76 31.3386 44.246 33.3192 47.2257 34.9202C47.445 35.038 47.6615 35.1538 47.875 35.2675C47.6477 35.1232 47.4208 34.9745 47.1943 34.8218C44.1907 32.796 41.2789 30.0615 38.9101 27.4458C36.5335 24.8215 34.7033 22.3168 33.875 20.7675C32.159 17.5575 33.3125 13.33 37.875 14.1425C41.7925 14.8401 44.6986 21.1388 46.7724 27.0209C47.4812 29.0312 48.0927 30.9928 48.6142 32.6656C48.7083 32.9674 48.7995 33.2598 48.8878 33.5414C48.897 33.5707 48.9061 33.5999 48.9152 33.629C49.0549 34.0741 49.1873 34.4913 49.3125 34.875C49.3308 34.6062 49.3423 34.2825 49.3455 33.9114C49.3604 32.2114 49.2015 29.5154 48.7194 26.5305ZM46.1823 31.5946C45.3801 29.0564 44.4191 26.1647 43.2551 23.4937C42.3444 21.4039 41.3585 19.5716 40.309 18.2298C39.2352 16.8571 38.2919 16.2482 37.5244 16.1115C36.6907 15.963 36.1928 16.0749 35.919 16.2007C35.6588 16.3203 35.4659 16.5124 35.3272 16.8044C35.0162 17.4593 35.0057 18.6404 35.6388 19.8245C36.3851 21.2207 38.1947 23.7102 40.6418 26.3767C42.3062 28.1903 44.2073 30.0218 46.1823 31.5946Z" fill="#BC2020" fill-rule="evenodd"/><path clip-rule="evenodd" d="M32.8279 10.2691C33.1377 10.7264 33.0181 11.3481 32.5609 11.6579C31.565 12.3325 29.643 14.6797 31.0007 18.3587C31.1919 18.8769 30.9269 19.4519 30.4088 19.6431C29.8906 19.8343 29.3156 19.5693 29.1244 19.0512C27.3821 14.3302 29.8517 11.0774 31.4392 10.002C31.8964 9.6923 32.5182 9.81187 32.8279 10.2691Z" fill="#FF7878" fill-rule="evenodd"/></svg>